<svg width="6" height="78" viewBox="0 0 6 78" fill="none" xmlns="http://www.w3.org/2000/svg">
<path d="M6 35.4231C6 34.7392 5.78833 34.1775 5.45455 33.7949C5.1289 33.4122 4.66486 33.2006 4.14383 33.2006C3.54952 33.2006 3.14247 33.3797 2.87381 33.7379C2.6133 34.0961 2.46676 34.6252 2.3772 35.3335C2.31208 35.7813 2.23066 36.0499 2.10855 36.2046C2.00271 36.3674 1.83989 36.4163 1.63636 36.4163C1.24559 36.4163 0.976934 36.1314 0.976933 35.5452C0.976933 34.9835 1.22931 34.6497 1.75034 34.5764L1.75034 33.3634C0.58616 33.4692 0.00814101 34.2345 0.00814107 35.5452C0.0081411 36.1883 0.195387 36.7175 0.496608 37.0839C0.814111 37.4502 1.24559 37.6619 1.7422 37.6619C2.30393 37.6619 2.70285 37.5153 2.97151 37.1653C3.25645 36.8315 3.41113 36.3105 3.50882 35.5615C3.57395 35.1381 3.65536 34.8613 3.76119 34.6904C3.88331 34.5276 4.03799 34.4624 4.26594 34.4624C4.72185 34.4624 5.03935 34.8369 5.03935 35.4231C5.03935 35.8546 4.92537 36.1232 4.75441 36.2942C4.59159 36.4651 4.34735 36.5303 4.08684 36.5628L4.08684 37.8247C4.673 37.7921 5.14518 37.5886 5.47897 37.1978C5.81275 36.8071 6 36.229 6 35.4231Z" fill="white"/>
<path d="M6 28.4804C6 27.764 5.81275 27.1452 5.4464 26.6893C5.08819 26.2334 4.5346 25.9404 3.81818 25.8671L3.81818 27.1615C4.56716 27.2674 4.93351 27.7721 4.93351 28.4967C4.93351 29.4655 4.24152 30.0109 3.02849 30.0109L2.96336 30.0109C1.75034 30.0109 1.04206 29.4248 1.04206 28.5048C1.04206 27.764 1.40841 27.3813 2.11669 27.2836L2.11669 25.9322C1.40027 25.9973 0.871098 26.2986 0.52103 26.7463C0.170963 27.2022 -4.37278e-07 27.821 -4.0703e-07 28.5129C-3.71088e-07 29.3352 0.301221 30.0598 0.822252 30.5727C1.34328 31.0937 2.09227 31.403 2.97151 31.403L3.03663 31.403C3.9403 31.403 4.673 31.1507 5.18589 30.6541C5.70692 30.1656 6 29.4329 6 28.4804Z" fill="white"/>
<path d="M0.0895514 23.831L5.91045 23.831L5.91045 22.5203L3.6635 22.5203L3.6635 21.9504L5.91045 20.5583L5.91045 19.158L3.43555 20.6967C3.33786 20.3629 3.16689 20.0617 2.91452 19.8419C2.66214 19.622 2.3365 19.4999 1.88874 19.4999L1.85617 19.4999C1.26187 19.4999 0.81411 19.7197 0.52103 20.1105C0.22795 20.5013 0.0895513 21.063 0.0895513 21.7469L0.0895514 23.831ZM2.76798 21.7794L2.76798 22.5203L1.09905 22.5203L1.09905 21.7794C1.09905 21.1363 1.30258 20.7862 1.89688 20.7862L1.92944 20.7862C2.48304 20.7862 2.76798 21.12 2.76798 21.7794Z" fill="white"/>
<path d="M4.9498 14.5488C4.9498 15.0291 4.76255 15.4362 4.42876 15.7211C4.10312 16.0142 3.62279 16.1852 3.02849 16.1852L2.96336 16.1852C2.3772 16.1852 1.89688 16.0386 1.56309 15.7537C1.23745 15.4688 1.0502 15.078 1.0502 14.5651C1.0502 14.0522 1.24559 13.6533 1.57937 13.3684C1.91316 13.0997 2.39349 12.945 2.95522 12.945L3.02035 12.945C3.60651 12.945 4.09498 13.1078 4.42062 13.3765C4.75441 13.6614 4.9498 14.0604 4.9498 14.5488ZM6 14.5732C6 13.6614 5.6825 12.9125 5.15332 12.3914C4.62415 11.8704 3.87517 11.5692 3.00407 11.5692L2.93894 11.5692C2.0597 11.5692 1.33514 11.8867 0.81411 12.4077C0.30122 12.9369 0.00814011 13.6859 0.00814015 14.5651C0.00814019 15.4362 0.317502 16.177 0.838533 16.7062C1.35956 17.2517 2.10041 17.561 2.97151 17.561L3.03663 17.561C3.88331 17.561 4.63229 17.268 5.15332 16.7469C5.6825 16.234 6 15.485 6 14.5732Z" fill="white"/>
<path d="M0.0895508 9.43247L5.91045 9.43247L5.91045 5.74455L4.87653 5.74455L4.87653 8.11361L0.0895507 8.11361L0.0895508 9.43247Z" fill="white"/>
<path d="M0.0895505 3.68811L5.91045 3.68811L5.91045 0.000186662L4.87653 0.000186707L4.87653 2.36925L0.0895505 2.36925L0.0895505 3.68811Z" fill="white"/>
<rect y="43" width="6" height="35" fill="white"/>
</svg>
