<svg width="79" height="79" stroke="none" fill="none" xmlns="http://www.w3.org/2000/svg">
    <rect x=".87778" y=".87778" width="77.2444" height="77.2444" rx="14.9222" fill="#000" stroke="#000" stroke-width="1.75556"/>
    <path d="m22.9297 71.6689 2.3374-1.1516 2.4878.7027.9662-.4761c.1534-.0756.2653-.1486.3358-.219.0705-.0704.1066-.1316.1083-.1834.0078-.0549-.0167-.1117-.0733-.1705-.0506-.0618-.1064-.1109-.1674-.1471-.0676-.0381-.1523-.0882-.2542-.1503-.1018-.062-.18-.1103-.2344-.1447-.2946-.2068-.4522-.3868-.4726-.54l2.5582-1.2604c.0484.318.3054.6046.7712.8597.6479.3542.8271.6664.5377.9365.224-.0747.4624-.1309.7154-.1689.2526-.0428.4843-.0677.6952-.0747.2044-.0088.4292-.0048.6744.0122.2447.012.4416.0272.5908.0456.1491.0183.3213.0432.5165.0745 1.0081.1563 1.923.2055 2.7448.1475l-2.5582 1.2604c-.5082.0515-1.0394.0275-1.5935-.0719-.2281-.0407-.3908-.0676-.4882-.0809-.0978-.0181-.2571-.0417-.4777-.0707-.2207-.029-.4014-.042-.5422-.039-.1346 0-.3006.0078-.4979.0234-.1978.0108-.3841.0414-.559.0918-.1688.0475-.336.112-.5016.1936l-1.2147.5985 2.9024.8197-2.3373 1.1516-6.9699-1.9685Zm10.8115-5.3267 4.9225-.122-1.5545-1.5374 2.5306-1.2468 2.4061 2.962c.2681.3372.3292.6541.1832.9505-.1526.2945-.5571.6035-1.2135.9269-.6012.2962-1.1311.496-1.5897.5995l-1.7671-.499c.5199-.1338.9363-.2777 1.2492-.4319.4049-.1994.5524-.3741.4425-.5241l-8.4436.3187 2.8343-1.3964Zm6.3912-3.1489 4.4539-2.1944c.2515-.1239.4573-.2228.6172-.2965.1661-.0767.3732-.1609.6213-.2525.2542-.0946.488-.1665.7015-.2156.2135-.049.4569-.0873.73-.1148.2728-.0323.5539-.0433.8433-.0328.4956.0211.9606.0929 1.395.2156.8227.2324 1.1555.5403.9982.9239-.0581.1357-.1918.2858-.4012.4502-.2159.1625-.4185.2955-.6078.3989-.1897.0986-.4441.2265-.7631.3837l-1.7577.8659 2.4583.6943-2.319 1.1425-6.9699-1.9684Zm3.8985-.6965 1.3624.3848 1.5184-.7481c.2638-.1299.4255-.2198.485-.2696.2151-.1722.1515-.3067-.1907-.4034-.1185-.0334-.2646-.0533-.4383-.0595-.3337-.0039-.6816.0833-1.0435.2616l-1.6933.8342Zm3.6871-3.0409 2.3373-1.1516 2.3398.6608 2.4754-1.2196c.9263-.4564 1.7879-.7457 2.5845-.8678.7962-.127 1.6123-.0725 2.4481.1636.8162.2304 1.1817.512 1.0968.8447-.0854.3277-.5208.685-1.306 1.0719l-5.0061 2.4665-6.9698-1.9685Zm6.2567-.0447 1.4709.4155 2.0061-.9884c.2577-.127.4038-.2474.4382-.3613.034-.1188-.0872-.2172-.3636-.2953-.4476-.1264-.9597-.0475-1.5363.2366l-2.0153.9929ZM69.94 53.9097l-6.9385 3.4186-6.9699-1.9685 6.8557-3.3777 1.5598.4405-4.5275 2.2307 1.1452.3234 4.1871-2.0629 1.5697.4433-4.1871 2.0629 1.1156.3151 4.6103-2.2715 1.5796.4461Zm-6.3044-2.2963 4.4539-2.1944c.2515-.1239.4573-.2227.6172-.2964.1661-.0768.3732-.1609.6212-.2526.2543-.0946.4881-.1664.7016-.2155.2135-.0491.4568-.0874.73-.1148.2728-.0324.5539-.0433.8433-.0329.4956.0211.9606.093 1.395.2157.8227.2323 1.1554.5403.9982.9238-.0581.1358-.1918.2858-.4012.4502-.2159.1625-.4185.2955-.6078.399-.1898.0985-.4441.2264-.7631.3836l-1.7577.866 2.4583.6942-2.319 1.1426-6.9699-1.9685Zm3.8985-.6964 1.3624.3847 1.5184-.748c.2638-.13.4255-.2199.485-.2696.2151-.1723.1515-.3068-.1908-.4034-.1184-.0335-.2645-.0533-.4382-.0596-.3337-.0039-.6816.0833-1.0435.2616l-1.6933.8343Z" fill="#DCFF00"/>
    <path fill-rule="evenodd" clip-rule="evenodd" d="m48.8931 21.8749 9.2214-4.6688v2.3094l-4.3366 2.2763-5.566 2.8744-2.4757 2.7581.4486.4819.9637 2.3593.3157 2.1433-.3157 3.3729 1.728-1.4954 9.2213-4.5525v2.243l-9.2213 4.6855c-1.3625.8529-3.7683 2.6019-2.4923 2.7747 1.2761.1728 2.4258-.1717 2.8412-.3655l8.8724-4.4362v2.5088c-2.2098 1.152-6.8155 3.5557-7.5598 3.9544-.9305.4985-1.9107.8142-3.3895 1.2295.5317 5.0012-.4486 7.4934-1.2793 9.4872.9304.6646 2.459.133 3.107-.2159l9.1216-4.6024v2.6916c-2.2485 1.1575-7.1644 3.6852-8.8392 4.5359-1.8392.9342-3.6784.6117-4.7177.4294-.1437-.0252-.2721-.0477-.3831-.0638-.1462.638-2.5587 3.1734-4.619 4.4362l-9.3044 4.5857v-2.5753l9.1715-4.6522c1.379-.8141 1.9772-1.2129 3.1569-3.0572-1.5831-2.2814-1.6004-4.7224-1.6094-5.9821-.0006-.0889-.0012-.1719-.0023-.2485-.0091-.6373.1863-1.2796.2993-1.6508.0931-.3062.1302-.4279-.0501-.2101-.319.3854-.8861.803-1.1298.9636l-9.753 4.9846v-2.4591c3.035-1.5784 9.1748-4.7718 9.4539-4.918.2792-.1462 1.4566-1.2351 2.0104-1.7612.2604-.2382.668-.7577.216-.9305-.4519-.1728-2.2042.2714-3.0239.5151l-8.6564 4.3532v-2.3095c1.9384-1.008 6.1076-3.1536 7.2774-3.672.5342-.2367.9553-.4447 1.3492-.6392.6841-.3378 1.2862-.635 2.2562-.9724-.7975-3.2832.5095-7.3162 1.2628-8.9223.083-.0499.1993-.2592 0-.6979-.1994-.4386-1.9662-.0387-2.8246.216l-9.321 4.536v-2.3262c2.2098-1.0799 7.058-3.4659 8.7727-4.3697 2.1248-1.12 3.0249-.9665 5.1284-.6076l.0555.0094c.7975-1.4355 3.4116-3.5002 4.619-4.3531Zm-4.7381 7.8878c.6293.9155 1.9435 3.3799.0741 8.1147-1.7954-1.6276-1.018-6.6906-.0741-8.1147Zm-.122 12.6182c-.7404.8231-1.9065 5.8444 0 8.073 1.3511-1.9512 1.4344-6.7137 0-8.073Z" fill="#DCFF00"/>
    <path d="m45.2184 27.0528-.1741.2426.2107.2127c1.06 1.0713 1.6189 2.7109 1.6156 4.7413v.4426a12.72273 12.72273 0 0 1-.3283 2.782l-.2366 1.0441.8101-.7025a12.41396 12.41396 0 0 1 2.5043-1.6974l8.0051-4.0268v1.5864l-8.3594 4.2043c-1.3292.6699-2.6152 1.7665-3.7138 3.1715l-.3263.4173.5111.1403c1.1498.3163 2.479.1203 3.8427-.5663l8.0371-4.0434v1.8449l-8.3235 4.187c-.8427.424-1.6728.6972-2.467.8122l-.3988.0578.113.3894c.217.7909.3212 1.6085.3097 2.4285v.44c0 1.9998-.553 4.1976-1.5917 6.3549l-.1715.3556.3722.1329c1.2076.4253 2.6258.2578 4.1019-.4852l8.0377-4.0434v1.8449l-8.3235 4.187c-1.8735.9424-3.6952 1.1298-5.1294.5191l-.2658-.1117-.1642.234c-1.502 2.1446-3.3841 3.8547-5.3008 4.8203l-8.0032 4.0215V61.147l8.3567-4.2043c1.4376-.7231 2.8053-1.9274 3.9551-3.4892l.1734-.2353-.1993-.2146c-.9969-1.0727-1.5193-2.6764-1.5167-4.6383v-.4399c.0084-.9366.1198-1.8693.3323-2.7814l.236-1.0441-.8108.6985a12.4427 12.4427 0 0 1-2.5043 1.6967l-8.0051 4.0275v-1.8449l8.3594-4.2036c1.3292-.6699 2.6145-1.7659 3.7131-3.1715l.3263-.4174-.5111-.1402c-1.1497-.3157-2.4783-.1203-3.842.5656l-8.0404 4.0441v-1.5871l8.3235-4.187c.8434-.424 1.6735-.6972 2.4663-.8121l.3988-.0579-.1123-.3894a8.70391 8.70391 0 0 1-.3097-2.4252v-.4393c0-2.0722.5895-4.3445 1.696-6.5702l.1722-.3463-.3596-.1402c-1.2321-.4799-2.691-.327-4.2189.4413l-8.037 4.0441V31.299l8.3235-4.187c1.8735-.9424 3.6952-1.1265 5.1294-.5184l.2658.111.1635-.234c1.502-2.144 3.3848-3.8547 5.3015-4.8203l8.0052-4.0269v1.5865l-8.3594 4.2029c-1.4874.7483-2.893 2.0071-4.0647 3.64Zm.7444.1795a12.7032 12.7032 0 0 1 1.2255-1.4123l10.2096 3.5948-8.0962 4.0747c-.6635.3366-1.2956.7319-1.8888 1.181.1053-.6543.1595-1.3158.1622-1.9785v-.44c0-2.0895-.5536-3.8161-1.613-5.0177l.0007-.002Zm11.3979 7.1132-8.0989 4.0687c-.9836.4951-1.9333.7045-2.7813.6194.9457-1.1052 2.0097-1.9705 3.1023-2.5201l5.7655-2.9004 2.0124.7324ZM57.249 46.862l-8.0064 4.0215c-1.1438.5755-2.2304.765-3.1715.5576.9696-2.1314 1.4821-4.2953 1.4847-6.2818v-.438c.0015-.4631-.028-.9258-.0884-1.385l9.7816 3.5257ZM18.2475 59.2688v-2.0762l11.4577 3.9916-.002 2.0795-11.4557-3.9949Zm8.3594-6.5636a9.9385 9.9385 0 0 0 2.1659-1.5034l.951.3323.1562.0552.0864-.0439 8.7881-4.4202a12.49427 12.49427 0 0 0 1.8881-1.1817 12.8589 12.8589 0 0 0-.1615 1.9799v.4399c0 2.0144.5177 3.6992 1.5093 4.8962-1.0467 1.3604-2.2643 2.4125-3.5337 3.0511l-8.4251 4.2382-11.2358-3.9138 7.8111-3.9298Zm-8.3395-7.9706 11.4578 4.0541v2.0004l-11.4578-4.0228v-2.0317Zm11.6386 1.6655.1521-.0665 8.7336-4.3937c.9836-.4951 1.9333-.7051 2.7814-.6187-.9464 1.1046-2.0098 1.9705-3.1024 2.5195l-8.5069 4.28-11.1979-3.8866 2.1347-.9583 9.0054 3.1243Zm-11.6339-6.5424 11.4577 3.9916v1.7719l-11.4577-4.0149v-1.7486Zm8.3241-4.5146a8.13004 8.13004 0 0 1 2.4179-.8048l10.924 3.8028a9.72755 9.72755 0 0 0-1.492.6075l-8.4405 4.2461-11.2317-3.9145 7.8223-3.9371Zm3.1476-1.4488.1023.0392 8.9622-4.4608c1.1903-.5982 2.3148-.7796 3.2785-.5317-1.0394 2.2051-1.5891 4.4528-1.5951 6.5131v.4399a9.95107 9.95107 0 0 0 .1828 1.9573l-11.2836-3.9305v-.1568l.3529.1303Zm-11.4524-6.5377 11.4584 3.9437v1.8423L18.292 29.1158l-.0006-1.7592Zm8.3241-4.4828c1.8735-.9424 3.6952-1.1298 5.1287-.519l.2659.1116.006-.0086 9.0984 3.1515a8.82327 8.82327 0 0 0-2.6498.8713l-8.3487 4.1983-11.2916-3.8859 7.7911-3.9192Zm10.8636-5.463 8.4856-4.3705 11.4757 3.8926-8.1214 4.086c-1.9493.9803-3.8547 2.685-5.3986 4.8164L32.4407 21.859c1.4549-1.9693 3.2287-3.539 5.0351-4.4476l.0033-.0006Zm20.8652 2.2344.0033-3.1429-12.4393-4.2269-8.7529 4.5053c-1.9506.9817-3.8633 2.6857-5.4012 4.8204-1.5804-.5636-3.5051-.3396-5.4564.642l-8.7116 4.3824-.004 2.9827 11.1022 3.8959v.3755a9.0256 9.0256 0 0 0-2.4039.8321l-8.7116 4.3831-.004 3.0126 2.4106.8447-2.4132 1.0528-.004 3.2605 10.4442 3.6666a8.98566 8.98566 0 0 1-1.7127 1.1425l-8.7448 4.399-.004 3.2971 12.1622 4.2375.1536.0531.1149-.0578 8.7628-4.4083c1.9506-.9836 3.862-2.687 5.4013-4.8197 1.5804.5636 3.5044.3396 5.4557-.642l8.7116-4.3824.0047-3.2565-.1888-.0731-10.7925-3.8893c-.0046-.0179-.008-.0366-.0119-.0545a9.10794 9.10794 0 0 0 2.2942-.8135l8.7116-4.3824.0046-3.323-.095-.0565-2.0131-.727 2.1108-1.0634.0046-3.1236-.0624-.018-10.4948-3.6952a9.09554 9.09554 0 0 1 1.825-1.2335l8.7442-4.3963Z" fill="#DCFF00"/>
</svg>
