<svg width="128" height="30" stroke="none" xmlns="http://www.w3.org/2000/svg">
    <path stroke="none" d="M36.2232 4.88066h.8721c.3035.03741.609-.05249.8426-.24795.2335-.19547.3739-.47869.3871-.78115 0-.59538-.4526-.97998-1.2201-.97998-.3107-.04297-.6259.0402-.8737.23061-.2479.19042-.4074.47192-.4425.78054h-.9575c.0333-.56054.3004-1.08219.7374-1.44021.437-.35803 1.0047-.52026 1.5672-.4479 1.2842 0 2.1884.7116 2.1884 1.73596.0062.70716-.4876 1.3225-1.1849 1.47657v.07607c.8351.03666 1.4834.73429 1.4506 1.56109-.0599.57678-.352 1.10535-.8104 1.46646-.4583.36111-1.0442.52432-1.6255.45282-.5826.07863-1.1726-.08038-1.6345-.44057-.4619-.36018-.7561-.89063-.8153-1.46972h.9724c.0588.61757.632 1.01594 1.4774 1.01594s1.3973-.44746 1.3973-1.07823c0-.63976-.5199-1.03387-1.4283-1.03387h-.8998v-.87648Zm5.0382 1.76685c0-.87696.6608-1.38253 1.8307-1.45438l1.3333-.07607v-.42052c0-.51456-.3427-.80511-1.0077-.80511-.5423 0-.917.19705-1.0258.54149h-.9405c.0993-.83681.8956-1.37355 2.0122-1.37355 1.234 0 1.9299.60805 1.9299 1.63717v3.32875h-.9361v-.68466h-.0769c-.3176.49999-.8824.79221-1.4784.76493-.4178.04302-.8346-.09093-1.1472-.36872-.3126-.2778-.4918-.67352-.4935-1.08933Zm3.164-.4163v-.4073l-1.202.07607c-.6779.0449-.9853.27312-.9853.70262 0 .43847.3843.69364.9127.69364.3128.03135.6251-.0643.8654-.26507.2402-.20076.3879-.48944.4092-.79996Zm3.2736-2.36249v4.06254h-.9714V3.05937h3.2409v.80929l-2.2695.00006Zm7.9947 1.70579c0 1.54789-.791 2.51836-2.0335 2.51836-.6227.0421-1.2136-.27712-1.5147-.81832h-.0769v2.35776h-.9713V3.14069h.935v.80514h.0726c.3061-.55935.9032-.9016 1.5457-.88594 1.2521-.00003 2.0431.9662 2.0431 2.51462Zm-.9991 0c0-1.0291-.4921-1.6509-1.3151-1.6509-.8176 0-1.329.635-1.329 1.65514 0 1.01537.5113 1.6509 1.3247 1.6509.8273-.00001 1.3194-.62181 1.3194-1.65514Zm2.3692 4.1017v-.82784c.1051.01322.211.01923.3169.01796.4286.03142.8123-.26162.8903-.67991l.0726-.2372-1.7816-4.88985h1.0579l1.234 3.86972h.0768l1.2297-3.86972h1.0301l-1.8349 5.07317c-.4206 1.18548-.886 1.56586-1.8894 1.56586-.0811-.00001-.3117-.009-.4024-.02219Zm4.9685-3.0173h.9671c.095.42953.5018.65349 1.0707.65349.6469 0 1.044-.28211 1.044-.72057 0-.46965-.3566-.69364-1.044-.69364h-.7366v-.747h.7238c.5871 0 .886-.22347.886-.63077 0-.35766-.2893-.63077-.886-.63077-.5434 0-.9404.22822-1.0035.61282h-.9361c.1456-.91936 1.0082-1.55397 1.9396-1.42691 1.1699 0 1.8392.52354 1.8392 1.34661.0113.47234-.3127.88815-.7771.99741v.07608c.5553.0709.9691.542.9628 1.09619 0 .92614-.7963 1.5389-2.0121 1.5389-1.0749-.00003-1.9481-.48764-2.0378-1.47184Zm5.4656 1.27235V3.05937h.9629v3.35096h.0768l2.2684-3.35094h.9628v4.87188h-.9628V4.56238h-.0726l-2.2726 3.3689-.9629-.00002Zm9.5334-4.0626h-1.55V7.9312h-.9724V3.86866h-1.55v-.80929h4.0724v.80929Zm5.817 2.84128c-.2731.91888-1.1717 1.51242-2.1338 1.40947-.6563.01715-1.2871-.25212-1.7249-.73637-.4379-.48425-.6385-1.13452-.5488-1.77828-.0873-.64555.1126-1.29686.548-1.7852s1.0634-.76566 1.7214-.7601c1.3696 0 2.1969.92613 2.1969 2.45599v.33551h-3.4757v.05388c-.0311.3616.0935.7194.3432.9852.2496.2658.601.41488.9677.4105.4749.05621.937-.17711 1.1699-.59063l.9361.00003Zm-3.4169-1.57007h2.485c.0249-.33047-.0924-.65595-.3229-.89628-.2305-.24033-.5528-.37317-.8876-.3658-.3395-.00457-.6664.12695-.9065.36465-.24.2377-.3728.56138-.368.89743Zm6.6425-2.0805h2.2193c.9628 0 1.5275.48286 1.5275 1.23882.0031.49435-.3437.92345-.8316 1.02911v.07607c.597.03733 1.0597.53112 1.0525 1.12314 0 .85002-.6458 1.40473-1.726 1.40473h-2.2417V3.05937Zm.9629.73802v1.26154h.9628c.5871 0 .8679-.22346.8679-.63553 0-.37983-.2445-.62601-.7601-.62601h-1.0706Zm0 1.96842v1.42744h1.1518c.5743 0 .8817-.25094.8817-.7116 0-.48761-.348-.71583-1.0034-.71583l-1.0301-.00001ZM64.2171 16.7999c-2.6234 0-4.7002 1.9475-4.7002 4.6524 0 2.5966 2.0768 4.6523 4.7002 4.6523 2.6234 0 4.7002-1.9475 4.7002-4.6523 0-2.8131-2.0768-4.6524-4.7002-4.6524Zm0 7.3572c-1.421 0-2.6234-1.1901-2.6234-2.813 0-1.6229 1.2024-2.8131 2.6234-2.8131 1.421 0 2.6234 1.082 2.6234 2.8131 0 1.6229-1.2024 2.813-2.6234 2.813Zm-10.1655-7.3572c-2.6234 0-4.7003 1.9475-4.7003 4.6524 0 2.5966 2.0769 4.6523 4.7003 4.6523 2.6233 0 4.7002-1.9475 4.7002-4.6523 0-2.8131-2.0769-4.6524-4.7002-4.6524Zm0 7.3572c-1.421 0-2.6234-1.1901-2.6234-2.813 0-1.6229 1.2024-2.8131 2.6234-2.8131 1.4209 0 2.6233 1.082 2.6233 2.8131 0 1.6229-1.2024 2.813-2.6233 2.813Zm-12.1331-5.9506v1.9474h4.7002c-.1093 1.082-.5466 1.9475-1.0931 2.4885-.6558.6492-1.7489 1.4065-3.6071 1.4065-2.9513 0-5.1375-2.2721-5.1375-5.1933s2.2955-5.1933 5.1375-5.1933c1.5303 0 2.7326.6492 3.6071 1.4065l1.421-1.4065c-1.2024-1.0819-2.7327-1.9475-4.9188-1.9475-3.9351 0-7.3236 3.2459-7.3236 7.1408 0 3.895 3.3885 7.1408 7.3236 7.1408 2.1861 0 3.7164-.6492 5.0281-2.0557 1.3117-1.2983 1.7489-3.1376 1.7489-4.5441 0-.4328 0-.8656-.1093-1.1901h-6.777Zm49.6254 1.5147c-.4373-1.082-1.5303-2.9213-3.9351-2.9213-2.4047 0-4.3723 1.8393-4.3723 4.6524 0 2.5966 1.9676 4.6523 4.5909 4.6523 2.0769 0 3.3886-1.2983 3.8258-2.0557l-1.5303-1.0819c-.5466.7573-1.2024 1.2983-2.2955 1.2983-1.093 0-1.7489-.4328-2.2954-1.4065l6.2305-2.5967-.2186-.5409Zm-6.3398 1.5147c0-1.7311 1.421-2.7049 2.4047-2.7049.7652 0 1.5303.4328 1.7489.9738l-4.1536 1.7311Zm-5.1375 4.4359h2.0769V12.1476h-2.0769v13.5242Zm-3.2792-7.8981c-.5465-.541-1.421-1.082-2.514-1.082-2.2955 0-4.4816 2.0557-4.4816 4.6524 0 2.5966 2.0768 4.5441 4.4816 4.5441 1.093 0 1.9675-.541 2.4047-1.0819h.1093v.6491c0 1.7311-.9837 2.7049-2.514 2.7049-1.2024 0-2.0769-.8656-2.2955-1.6229l-1.7489.7573c.5465 1.1902 1.8582 2.7049 4.1537 2.7049 2.4047 0 4.3723-1.4066 4.3723-4.7606v-8.2227h-1.9676v.7574Zm-2.4047 6.3834c-1.421 0-2.6234-1.1901-2.6234-2.813 0-1.6229 1.2024-2.8131 2.6234-2.8131 1.421 0 2.514 1.1902 2.514 2.8131s-1.093 2.813-2.514 2.813Zm26.6713-12.0095h-4.9192v13.5242h2.0768v-5.0851h2.8424c2.295 0 4.481-1.6229 4.481-4.2195 0-2.5967-2.186-4.2196-4.481-4.2196Zm.109 6.4916h-2.9514v-4.6523h2.9514c1.53 0 2.405 1.2983 2.405 2.2721-.11 1.1901-.984 2.3802-2.405 2.3802Zm12.57-1.9475c-1.53 0-3.06.6492-3.607 2.0557l1.858.7574c.438-.7574 1.093-.9738 1.859-.9738 1.093 0 2.076.6492 2.186 1.7311v.1082c-.328-.2164-1.203-.5409-2.077-.5409-1.968 0-3.935 1.0819-3.935 3.0294 0 1.8393 1.639 3.0294 3.388 3.0294 1.421 0 2.077-.6492 2.624-1.2983h.109v1.0819h1.967v-5.1933c-.218-2.3802-2.076-3.7868-4.372-3.7868Zm-.218 7.4654c-.656 0-1.64-.3246-1.64-1.1901 0-1.082 1.202-1.4065 2.186-1.4065.875 0 1.312.2163 1.858.4327-.218 1.2984-1.311 2.1639-2.404 2.1639Zm11.477-7.1408-2.296 5.8425h-.109l-2.405-5.8425h-2.186l3.607 8.2227-2.077 4.5442h2.077l5.575-12.7669h-2.186Zm-18.364 8.6555h2.077V12.1476h-2.077v13.5242ZM24.5584 14.8871c.6534-.3713.8431-.7166.8431-.9881 0-.2722-.1849-.6552-.8431-1.0275l-4.9008-2.7686-3.8581 3.7858 3.8531 3.7781 4.9058-2.7797ZM.88238.93477c-.109.2693-.17193.58646-.17193.93477V25.7803c0 .4151.08937.7859.23954 1.0842L14.0672 13.8809.88238.93477ZM18.55 9.49299l-3.623 3.54671L2.25879.60433l.0262-.0022c.23521-.01663.55625.04615.97779.27752L18.55 9.49299Z"/>
    <path stroke="none" fill-rule="evenodd" clip-rule="evenodd" d="m18.5456 18.288-3.623-3.548L2.29307 27.2238c.25043.0045.57102-.0672.99197-.2495L18.5456 18.288Z"/>
</svg>
