<svg width="127" height="30" stroke="none" xmlns="http://www.w3.org/2000/svg">
    <path stroke="none" fill-rule="evenodd" clip-rule="evenodd" d="m95.0611 17.6455.0002-1.192c.0003-1.5113.0007-3.0226-.004-4.5339 0-.1718.0466-.2184.218-.2281.5935-.034 1.1866-.0798 1.7772-.1428.181-.0193.2012.0336.2007.1903-.0039 3.6-.0049 7.2004-.0029 10.8012-.0064.2026.0077.4054.042.6053.084.4065.3272.6166.7397.6363.1819.0067.3638-.0153.5389-.0651.0932-.0256.1361-.0223.1525.0903.0652.4419.1366.8828.2142 1.3227.0176.1021 0 .1525-.1055.1827-.756.2205-1.5213.3281-2.2954.1311-.8624-.2193-1.2807-.8367-1.4252-1.6768a4.53835 4.53835 0 0 1-.0504-.7733v-5.3479Zm-5.482-1.2044-.0003 1.2609c-.0002 1.7619.0006 3.5237.0026 5.2853-.003.2867.021.573.0718.8552.155.8069.578 1.3899 1.4029 1.5999.7817.1995 1.5533.0929 2.3152-.1331.0983-.029.113-.0807.0983-.168-.0739-.4407-.147-.8813-.2163-1.3227-.0176-.1101-.0601-.129-.168-.0979a1.5882 1.5882 0 0 1-.4549.0643c-.47-.0042-.7103-.1945-.8119-.6507-.0428-.1834-.0424-.3692-.0421-.555l.0001-.0502c-.0031-3.5933-.002-7.1865.0033-10.7798.0004-.1798-.0411-.2151-.2201-.1966-.5849.0605-1.1703.1071-1.7561.1399-.1819.0101-.2294.0584-.2294.2419.0059 1.5013.0054 3.0026.0049 4.5039v.0027Zm-11.8324 5.9536c.0002-.2113.0004-.4227.0004-.634 0-.846-.0012-1.6919-.0038-2.5379l.0001-.0029c.0004-.1134.0006-.1844-.1597-.1844-1.6025.0053-3.2051.0053-4.8077 0-.1432-.0004-.1546.0571-.1546.1722.0063.4494.0101.8968 0 1.3441-.0037.1596.032.2121.2033.21.4468-.0041.8933-.0042 1.3397-.0043h.0003c.4215-.0001.8429-.0002 1.2643-.0036.1474-.0013.1818.0382.1818.1839-.0064.7482-.0064 1.4963 0 2.2443.003.1335-.0357.1928-.168.2348-.9589.2986-1.9359.4313-2.9381.3226-1.4328-.1559-2.4757-.8725-3.0444-2.2044-.5419-1.2739-.5839-2.6067-.3319-3.9508.3945-2.1115 1.975-3.4397 4.1197-3.5035 1.1934-.0357 2.3111.2545 3.3834.7485.1693.076.2151.042.2651-.126.1321-.4411.2768-.8776.4339-1.3097.0533-.1466.0184-.202-.1147-.2613-1.8167-.8106-3.7026-1.0652-5.6495-.633-2.1443.4759-3.6694 1.7209-4.436 3.8034-.5007 1.361-.5376 2.7723-.3213 4.1962.4251 2.8037 2.474 4.7426 5.2849 4.9946 1.9158.1722 3.7408-.1806 5.4953-.9472.1226-.0537.1609-.1167.1609-.2474-.0044-.6344-.0039-1.2686-.0034-1.9027v-.0015Zm-32.6894 2.9702c.1942.0003.3884.0007.5826.0007.0202-.0723-.0023-.1167-.0227-.1568-.0046-.0091-.0091-.0179-.013-.0268-1.6798-4.1819-3.3566-8.365-5.0303-12.5494-.0546-.1361-.1239-.168-.2609-.168-.5657.0076-1.1336.0135-1.6998-.0021-.2021-.0054-.284.0626-.3558.2466-1.4623 3.7349-2.9253 7.4692-4.3889 11.2027-.1263.321-.2513.6422-.378.9682l-.0004.001-.0001.0002-.0004.0009c-.0619.1591-.1242.3194-.1874.4814.1896 0 .3773-.0003.5638-.0006h.0025c.5181-.0008 1.0261-.0016 1.5339.0039.1365.003.1899-.042.2348-.168.1807-.5006.3639-1.0004.5471-1.5002l.0002-.0005v-.0002h.0001v-.0002c.1979-.5398.3958-1.0796.5905-1.6206.047-.1331.11-.1751.252-.1751 1.581.0078 3.162.0078 4.743 0 .1777-.0009.2525.0541.3121.2188.2923.8034.5921 1.6042.8919 2.4051l.0002.0005c.0835.2231.167.4463.2504.6695l.0075.0206c.0293.0813.055.1528.1841.1528.5467-.0062 1.0938-.0053 1.6409-.0044h.0001ZM39.36 14.9021a.39748.39748 0 0 1 .0487-.0731c.3514 1.1348.7688 2.2379 1.1877 3.345.2486.657.4978 1.3154.734 1.9827h-.1941c-.2781 0-.5562-.0002-.8342-.0004h-.0002c-.8689-.0006-1.7378-.0012-2.6065.0042-.1836.0013-.2029-.0353-.1416-.2033.1667-.4549.3375-.9084.5084-1.3619.4602-1.2212.9204-2.4426 1.2978-3.6932Zm19.6451 10.3195v3.6593c0 .297 0 .3033-.2969.3314-.2329.0219-.466.0413-.699.0607h-.0006l-.0003.0001h-.0007l-.0003.0001h-.0003c-.3306.0275-.6612.0551-.9912.0895-.181.0189-.215-.034-.215-.2075.0056-3.6002.0068-7.2005.0038-10.8007 0-.804-.0135-1.6079-.0681-2.4102-.0096-.1479.0273-.1869.1768-.1844.5738.0097 1.1476.0088 1.7222 0 .1344-.0021.184.042.1995.168.0278.2315.0596.4626.092.6975.0141.1027.0284.2061.0424.3106.0583-.0117.0927-.0531.1265-.0937.0135-.0161.0268-.0322.0415-.0462.7011-.6872 1.5122-1.1484 2.5135-1.1967 1.5857-.0772 2.7626.6566 3.4023 2.1158.4142.9434.486 1.9435.4431 2.9562-.0386.9152-.21 1.8015-.6468 2.6197-.7725 1.4504-2.0107 2.1573-3.6258 2.2514-.7497.0403-1.4785-.0739-2.2186-.3209Zm.001-3.5977v.0001c.0014.5803.0028 1.1607-.0064 1.7406-.003.1752.0588.2415.21.2966a4.1021 4.1021 0 0 0 1.6049.2478c.9241-.042 1.6029-.4734 2.0162-1.3055.2377-.4755.3499-.9858.3894-1.5121.063-.8401.071-1.678-.2235-2.4849-.3436-.9417-1.1379-1.4025-2.1279-1.2601-.7086.1008-1.2441.5006-1.7486.966a.35503.35503 0 0 0-.094.1313.35492.35492 0 0 0-.0257.1594c.0054.6439.0051 1.2879.0048 1.9315l-.0002.4598c0 .2098.0005.4196.001.6295Zm-9.3373-5.3674c-.2869.1995-.5415.4368-.8157.7119-.0362-.3822-.0777-.7199-.1315-1.058-.0202-.1101-.0491-.1521-.168-.1521-.5948.0051-1.1896.0051-1.7843 0-.1189-.0012-.1512.0298-.1437.1525.0542.8585.071 1.7179.071 2.5782.0017 3.5582 0 7.1169-.005 10.676 0 .1621.0353.2121.2033.1949l.0024-.0003c.583-.06 1.1657-.1199 1.7529-.1488.2234-.011.247-.0941.247-.2844-.0037-.6471-.004-1.2939-.0043-1.9409v-.0004c-.0002-.5271-.0004-1.0545-.0024-1.5824-.0005-.1415.0197-.1819.173-.1323a5.52387 5.52387 0 0 0 1.9624.2705c1.8532-.0832 3.1868-.943 3.9009-2.6714.5615-1.3571.5821-2.776.3141-4.2003-.1722-.9132-.5712-1.7247-1.2987-2.3325-1.1715-.9787-2.9453-1.0043-4.2734-.0802Zm-.7754 5.3525c-.0002-.1994-.0004-.3989-.0004-.5986 0-.2426.0002-.4852.0005-.7277v-.0003c.0006-.5544.0013-1.1087-.0014-1.6632a.37891.37891 0 0 1 .0276-.171.37804.37804 0 0 1 .101-.1407c.4889-.449 1.0055-.8493 1.6885-.9497 1.1181-.1642 1.9519.3457 2.2392 1.4378.3243 1.229.3171 2.4664-.1617 3.6614-.378.943-1.1102 1.4193-2.1279 1.455a4.10443 4.10443 0 0 1-1.6016-.2667c-.121-.0445-.168-.1079-.168-.244.0057-.5975.005-1.1945.0042-1.7923Zm72.3426 1.6375c.357-1.4076.811-2.7513 1.261-4.0847V19.16c.203-.5998.404-1.1976.596-1.7981.07-.2202.144-.4392.218-.658.087-.2562.174-.5123.254-.7702.042-.126.089-.1747.228-.173.615.008 1.231.0113 1.848 0 .202-.0042.186.0571.131.21-.316.8635-.63 1.7278-.943 2.5921-.38 1.0479-.76 2.0958-1.145 3.1422-.174.4756-.345.9527-.515 1.4299v.0003c-.38 1.0647-.76 2.1293-1.187 3.1763-.256.628-.579 1.2223-1.012 1.7511-.652.7981-1.501 1.2131-2.516 1.2938a6.09273 6.09273 0 0 1-2.143-.1991c-.126-.0357-.182-.066-.137-.2218.119-.415.219-.8363.312-1.2601.035-.1592.095-.168.241-.1353.492.1076.987.2016 1.493.0769.515-.126.895-.4402 1.201-.8581.261-.3566.426-.7605.592-1.1651v-.0002l.026-.0642c.036-.0906.006-.1656-.024-.2403v-.0004l-.008-.0221-.007-.0182c-1.125-3.0746-2.251-6.149-3.379-9.2231l-.001-.0013c-.047-.1305-.071-.1954-.048-.2276.022-.0319.09-.0319.225-.0319h1.932l.014-.0001c.085-.0003.15-.0006.189.1177.242.7555.493 1.5086.743 2.2618l.001.0008c.46 1.382.92 2.7645 1.329 4.1639.058.1948.104.3944.155.6122v.0015l.001.0032c.023.1025.048.2091.075.321Zm-37.0086 1.852a4.3328 4.3328 0 0 0 1.2572-.964c.0516.0588.0487.1198.0459.1774-.0008.0172-.0017.0342-.001.0507.0249.196.0484.392.0719.5879v.0003l.0001.0005v.0004l.0001.0006.0317.263c.0121.0995.042.1525.168.1525.5947-.0068 1.1895-.0051 1.7843 0 .1121.0012.1436-.0324.1365-.1429l-.0044-.0689c-.0196-.3108-.0394-.6237-.0414-.9366-.005-.8634-.0071-1.7269-.0093-2.5903-.0015-.5907-.003-1.1815-.0054-1.7722-.0021-.4898-.0227-.9787-.1142-1.4613-.2466-1.3067-.9573-2.3795-2.5568-2.6882-.8136-.1571-1.6289-.1512-2.4442-.0571a9.0225 9.0225 0 0 0-2.2875.5796c-.0113.0045-.0239.0083-.0368.0121-.0583.0174-.1223.0365-.1009.1324.111.4968.2204.9936.3314 1.4977l.0012.0053.0034.0154.0696-.0293h.0001c.055-.0232.1048-.0442.155-.0639 1.0039-.3928 2.03-.6872 3.1221-.5637.7183.0815 1.2698.4141 1.51 1.14.1286.3893.1513.7934.1513 1.2004.0003.1242-.0552.1158-.1271.1049a.98752.98752 0 0 0-.0326-.0045c-1.15-.1315-2.3005-.1638-3.4442.0735-1.6772.3503-2.5606 1.4525-2.4946 3.1083.0504 1.2634.7905 2.2287 1.9901 2.5475.9904.2633 1.9536.1609 2.8705-.3075Zm1.2359-3.4114c.0005.0752.0011.1503.0011.2255l.0017-.0017c0 .0618-.0019.1238-.0037.1859-.0038.1273-.0076.2548.0045.3807.0261.226-.0621.3801-.2301.52-.6511.5406-1.3748.9014-2.2392.909-.7423.0071-1.2249-.3411-1.3584-.959-.176-.8115.1445-1.5373.8236-1.8196.636-.2642 1.308-.2562 1.9801-.2259.1466.0064.2927.0196.4389.0328.1391.0125.2781.0251.4175.0318.1261.0059.1727.0416.1681.1714-.0069.1829-.0055.3659-.0041.549v.0001Zm19.4747-.845c-.247 0-.494.0003-.74.0005-.741.0008-1.481.0016-2.221-.0047-.161 0-.198.0387-.179.1962.054.4234.117.8426.275 1.2429.368.9291 1.069 1.4209 2.043 1.5423 1.077.1336 2.098-.1067 3.092-.4939.157-.0614.22-.0546.268.126.104.383.231.7602.363 1.1341.047.1335.024.189-.106.2482-.792.3543-1.637.5769-2.5.659-.854.0841-1.707.0841-2.543-.1381-1.497-.397-2.478-1.3416-2.8755-2.8378-.4057-1.5277-.3721-3.052.2945-4.5065.71-1.5462 1.961-2.3321 3.654-2.4169 1.07-.0534 2.055.1726 2.878.9098.753.672 1.13 1.5428 1.319 2.5105.107.5461.119 1.0963.123 1.6491 0 .1499-.042.1831-.187.1823-.739-.0044-1.478-.0039-2.218-.0033-.247.0001-.494.0003-.74.0003Zm-.567-1.3945h.002c.462-.0007.924-.0014 1.386.003.126 0 .171-.0253.158-.163-.017-.2159-.051-.43-.103-.6402-.193-.7329-.599-1.284-1.378-1.4449-.813-.168-1.512.05-2.024.7321-.297.394-.43.8552-.53 1.3295-.032.1516.013.189.162.1869.441-.0055.882-.0046 1.323-.0037.167.0004.335.0007.502.0007.167 0 .335-.0002.502-.0004Zm8.348-2.8526c-.255.305-.472.6355-.709.998-.008-.0915-.017-.1819-.025-.2713-.045-.4773-.087-.9271-.123-1.3756-.011-.1349-.053-.187-.202-.1844-.575.0096-1.149.0088-1.722 0-.146-.0021-.168.0462-.163.1781.006.1218.011.2436.017.3654.025.548.049 1.0958.052 1.6457.003 2.404.003 4.8081 0 7.2124-.001.1546.026.2134.2.21.595-.0126 1.189-.0138 1.784 0 .185.0042.21-.0571.21-.2226-.004-1.6877-.004-3.3757-.004-5.0634v-.0102c0-.9954.005-1.0009.69-1.7105l.024-.0247c.681-.7056 1.489-.9799 2.455-.7741.104.0223.141.0088.156-.1092.071-.5402.151-1.0786.24-1.6154.025-.1504-.05-.1765-.162-.1979-1.089-.2058-2.001.0899-2.718.9497ZM7.49432 27.1773H19.7045c.0388-.0018.0775-.0037.1163-.0057.0867-.0043.1736-.0086.2605-.0122 1.0438-.0421 2.0767-.1529 3.0736-.4885.7217-.2428 1.376-.6001 1.9253-1.1347.4171-.4059.7354-.8812.9777-1.4087.287-.6253.4569-1.2842.5654-1.9608.1075-.6703.156-1.3458.1647-2.0242a.32256.32256 0 0 1 .0117-.0601V7.87224c-.0018-.03951-.0037-.07903-.0056-.11855-.0043-.08892-.0086-.17784-.0123-.26675-.0421-1.04619-.1533-2.08144-.4909-3.08027-.2252-.66625-.5492-1.27724-1.0243-1.80176-.5154-.56885-1.1476-.96288-1.8591-1.23654a7.66289 7.66289 0 0 0-1.9163-.46021c-.3412-.03808-.6841-.06152-1.027-.08497-.1592-.01089-.3184-.02177-.4775-.03413a.25413.25413 0 0 1-.0446-.01172H7.25676c-.02077.00172-.04154.00368-.06232.00564-.04431.00418-.08863.00837-.13294.0102-.98521.03833-1.95981.14665-2.90464.44565-.79295.25117-1.50988.63316-2.10044 1.22973-.54843.55476-.91267 1.2207-1.15957 1.95426a8.1658 8.1658 0 0 0-.38373 1.78862c-.03122.30739-.05169.61588-.07215.92437-.00953.14369-.01906.28737-.02968.43094a.33873.33873 0 0 1-.01188.05211V20.32c.00179.0209.00384.0417.00589.0624.00415.0418.00826.0832.00995.1251.0396 1.0172.15251 2.0232.47447 2.9954.22964.6935.56427 1.3277 1.06281 1.8687.52594.5708 1.16924.9618 1.8906 1.231.61527.2301 1.25396.3644 1.90327.448.55978.071 1.1232.1094 1.68742.115a.32767.32767 0 0 1 .0605.0117Zm8.01278-10.9036c.0051.014.0112.0306.0186.0519l.0416-.1255c.1307-.3942.2558-.7717.3795-1.1497.0137-.0414.0274-.0827.0411-.1241.0984-.2965.1966-.5924.2914-.8894.0182-.0565.0448-.0719.1006-.0705.1426.004.2852.004.4276 0 .0573-.0016.0803.0174.0983.0729.2417.735.484 1.4699.7268 2.2046.0058.0178.0126.035.0254.0677l.0045.0115c.0138-.0418.0268-.0813.0394-.1193.024-.0725.0463-.1397.068-.2071.2092-.6458.4168-1.2923.6225-1.9394.0209-.0659.0498-.0901.1212-.0879.1306.0042.2612.0035.3919.0027.0514-.0003.1029-.0006.1543-.0006h.095c-.0034.0125-.0063.0237-.009.0339-.005.0194-.0092.0355-.0146.0511-.3815 1.093-.7613 2.1866-1.1391 3.2809-.0258.075-.0594.1025-.1394.0981-.137-.0075-.2746-.0043-.4117-.001-.0555.0015-.0824-.0144-.1017-.0705-.2373-.6892-.4751-1.3782-.7136-2.067-.0071-.0203-.015-.0403-.0253-.066-.0054-.0136-.0115-.0289-.0184-.0466-.0267.0774-.0514.1481-.0751.2159-.017.0485-.0334.0955-.0497.1425-.2112.6068-.4212 1.2139-.6302 1.8212-.0168.049-.0366.0729-.0931.0715-.1531-.0037-.3063-.0024-.4593 0-.044.0006-.0647-.0154-.0791-.0569-.3876-1.1135-.7754-2.227-1.1633-3.3403-.0037-.0107-.0065-.0216-.0104-.0364a1.14668 1.14668 0 0 0-.0078-.0293h.1305c.05 0 .0999.0002.1499.0003.1321.0005.2643.0009.3963-.0017.0578-.0011.0819.0187.0993.0735.2337.7297.4678 1.4588.7026 2.1873.0041.0129.0087.0257.0145.0417Zm-4.218-7.34039c-1.58365-.98188-2.12067-2.62574-2.08235-3.7443h.61115c.00574.05934.01073.1182.01569.17667.01037.12224.0206.24281.0372.36257.09835.7068.38121 1.33473.84051 1.87873.5709.67591 1.2907 1.11491 2.1617 1.27676 1.2341.229 2.3286-.07855 3.2613-.916.6778-.60877 1.0734-1.37749 1.1956-2.28256.0186-.14032.0254-.28285.0317-.42538.0025-.05638.0165-.07902.077-.07792.1298.00249.2596.00207.3961.00163.0545-.00018.11-.00036.167-.00036-.0421 1.4695-.6187 2.66391-1.7922 3.53874-1.4568 1.08609-3.3937 1.15783-4.9204.21142ZM4.04458 15.3563h1.57751l.00063-1.3816h.6984v3.4543h-.69555v-1.3937H4.04822v1.3937h-.70046v-3.455h.69682v1.3823Zm18.20962-1.378v.6366h-1.8351v.6946h1.262v.6395h-1.2628v.8418h.1005c.1272 0 .2544 0 .3815.0001.4454.0001.8907.0003 1.3361-.0016.0704-.0003.0978.0159.095.0916-.0041.1092-.0033.2186-.0026.328.0004.0437.0007.0875.0007.1312 0 .0179-.0013.0359-.0026.0554a1.54211 1.54211 0 0 0-.0017.0264h-2.6048v-3.4436h2.5338Zm-12.68748.0942v-.0991l.70708.0005c.0006.0103.0013.0203.0019.03.0014.0203.0027.0394.0027.0585l.0006.3076c.0011.5124.0022 1.0247-.0006 1.5371-.0014.2591-.0321.5145-.1319.7582-.15123.37-.41571.6185-.79579.7363-.3747.12-.77768.1191-1.15181-.0027-.48493-.1565-.7578-.5058-.85963-.9938a2.29962 2.29962 0 0 1-.04481-.447c-.00276-.3663-.00264-.7326-.00251-1.0988.00009-.2645.00018-.529-.00082-.7934-.00032-.0715.01694-.0969.09185-.095.14447.0036.28903.0029.43824.0022.06016-.0002.12107-.0005.18304-.0005v.0977c0 .1682-.00033.3364-.00067.5046-.00092.4652-.00185.9305.00431 1.3958.0041.1418.03083.282.07919.4153.07459.2136.23945.3428.45927.3951.15976.0386.32647.0382.48603-.0013.2933-.0723.48682-.3056.5185-.6257.01029-.0969.01583-.1946.01583-.292v-1.7896Zm1.23448 3.3618c-.0604.0001-.1219.0002-.1848.0002.0406-.0914.0785-.178.1154-.2621.0332-.0755.0654-.149.0979-.2223.4275-.9678.8537-1.9361 1.2787-2.9051.0248-.0569.0529-.0789.1162-.0768.1608.0042.3218.0023.4827 0 .0436-.0007.0653.0137.0829.0538l1.4683 3.3481c.0046.0104.0076.0214.0114.035.002.0073.0042.0154.007.0245a1.87263 1.87263 0 0 0-.0314.002c-.0211.0014-.04.0026-.0589.0026a32.9478 32.9478 0 0 1-.1722-.0003c-.13-.0004-.26-.0008-.3898.0021-.0619.0012-.0933-.0168-.1174-.0759-.0485-.1199-.0999-.2388-.1514-.3578-.0343-.0791-.0685-.1582-.1019-.2377-.0168-.0397-.0374-.0545-.0818-.0545-.4856.0017-.9713.0017-1.457 0-.0448-.0001-.0657.0159-.0815.055-.0369.0868-.0747.1732-.1125.2596-.0498.1138-.0995.2276-.1472.3422-.0219.0531-.0504.0689-.106.0689-.153-.0022-.306-.0019-.4667-.0015Zm13.0461-3.4604v3.4487h-.6866v-3.4487h.6866Zm-11.9237 2.1005h1.0366l-.5202-1.2098-.5164 1.2098Z"/>
    <path stroke="none" d="M34.7123 4.88144h.8721c.3036.03742.6091-.05249.8426-.24795.2336-.19547.3739-.47869.3871-.78115 0-.59538-.4525-.97998-1.22-.97998-.3108-.04297-.6259.0402-.8737.23061-.2479.19042-.4075.47192-.4425.78054h-.9575c.0333-.56054.3004-1.08218.7374-1.44021.437-.35803 1.0046-.52026 1.5672-.4479 1.2841 0 2.1883.7116 2.1883 1.73596.0062.70716-.4876 1.3225-1.1849 1.47657V5.284c.8351.03666 1.4834.73429 1.4507 1.56109-.06.57678-.3521 1.10535-.8104 1.46646-.4583.36111-1.0442.52432-1.6255.45282-.5827.07863-1.1726-.08038-1.6345-.44057-.4619-.36018-.7562-.89063-.8153-1.46972h.9724c.0587.61757.6319 1.01594 1.4774 1.01594.8454 0 1.3973-.44745 1.3973-1.07823 0-.63976-.5199-1.03387-1.4283-1.03387h-.8999v-.87648Zm5.0383 1.76685c0-.87696.6607-1.38253 1.8307-1.45438l1.3332-.07607v-.42052c0-.51456-.3426-.80511-1.0077-.80511-.5422 0-.9169.19705-1.0258.5415h-.9404c.0993-.83682.8956-1.37355 2.0121-1.37355 1.234 0 1.93.60804 1.93 1.63716v3.32875h-.9362v-.68466h-.0768c-.3176.49999-.8824.79221-1.4784.76493-.4179.04302-.8346-.09093-1.1472-.36872-.3126-.2778-.4919-.67352-.4935-1.08933Zm3.1639-.4163v-.4073l-1.202.07607c-.6778.0449-.9852.27312-.9852.70262 0 .43847.3842.69364.9127.69364.3128.03135.6251-.0643.8653-.26506.2403-.20077.388-.48945.4092-.79997Zm3.2737-2.36249v4.06254h-.9714V3.06016h3.2408v.80928l-2.2694.00006Zm7.9947 1.7058c0 1.54788-.791 2.51835-2.0335 2.51835-.6228.0421-1.2136-.27712-1.5147-.81832h-.0769v2.35776h-.9714V3.14147h.9351v.80514h.0726c.3061-.55935.9032-.9016 1.5457-.88594 1.2521-.00003 2.0431.9662 2.0431 2.51463Zm-.9992 0c0-1.02911-.4921-1.65091-1.3151-1.65091-.8176 0-1.3289.635-1.3289 1.65514 0 1.01537.5113 1.6509 1.3247 1.6509.8272-.00001 1.3193-.62181 1.3193-1.65513Zm2.3692 4.10169v-.82784c.1051.01323.211.01923.317.01796.4286.03142.8123-.26162.8903-.67991l.0725-.2372-1.7815-4.88984h1.0578l1.234 3.86971h.0769l1.2297-3.86971h1.0301l-1.8349 5.07316c-.4206 1.18548-.886 1.56586-1.8894 1.56586-.0812-.00001-.3118-.00899-.4025-.02219Zm4.9686-3.0173h.9671c.095.42953.5017.65349 1.0707.65349.6468 0 1.0439-.2821 1.0439-.72057 0-.46965-.3565-.69364-1.0439-.69364h-.7366v-.747h.7237c.5871 0 .886-.22346.886-.63077 0-.35765-.2893-.63077-.886-.63077-.5433 0-.9404.22823-1.0034.61282h-.9361c.1456-.91936 1.0082-1.55396 1.9395-1.42691 1.17 0 1.8393.52354 1.8393 1.34661.0112.47234-.3127.88815-.7771.99742v.07607c.5553.0709.9691.542.9628 1.09619 0 .92614-.7963 1.5389-2.0121 1.5389-1.075-.00003-1.9481-.48763-2.0378-1.47184Zm5.4656 1.27235V3.06016h.9628v3.35095h.0769l2.2683-3.35094h.9629v4.87188h-.9629V4.56316h-.0725l-2.2727 3.3689-.9628-.00002Zm9.5333-4.0626h-1.5499v4.06255h-.9725V3.86944h-1.55v-.80928h4.0724v.80928Zm5.8171 2.84128c-.2732.91888-1.1717 1.51242-2.1338 1.40947-.6564.01715-1.2871-.25212-1.725-.73637-.4378-.48425-.6385-1.13452-.5487-1.77828-.0874-.64555.1125-1.29686.5479-1.7852.4354-.48834 1.0635-.76566 1.7215-.7601 1.3695 0 2.1968.92614 2.1968 2.45599v.33551h-3.4756v.05388c-.0311.36161.0935.7194.3431.9852.2497.26581.6011.41489.9677.4105.4749.05621.9371-.17711 1.17-.59063l.9361.00003Zm-3.4169-1.57007h2.485c.0248-.33047-.0925-.65595-.323-.89628-.2305-.24033-.5528-.37317-.8875-.3658-.3395-.00457-.6665.12695-.9065.36465-.24.2377-.3728.56138-.368.89743Zm6.6425-2.08049h2.2192c.9629 0 1.5275.48285 1.5275 1.23881.0031.49435-.3436.92345-.8315 1.02911v.07607c.597.03733 1.0597.53112 1.0525 1.12315 0 .85001-.6458 1.40472-1.7261 1.40472h-2.2416V3.06016Zm.9628.73801v1.26155h.9629c.5871 0 .8678-.22347.8678-.63553 0-.37984-.2444-.62602-.76-.62602h-1.0707Zm0 1.96842v1.42744h1.1518c.5743 0 .8818-.25094.8818-.7116 0-.48761-.348-.71583-1.0035-.71583l-1.0301-.00001Z"/>
</svg>
