<svg width="102" height="30" xmlns="http://www.w3.org/2000/svg">
    <path stroke="none" fill-rule="evenodd" clip-rule="evenodd" d="M1.85529 25.3245c1.85576 1.8558 4.8426 1.8558 10.81621 1.8558h1.056c5.9737 0 8.9605 0 10.8163-1.8558 1.8557-1.8558 1.8557-4.8426 1.8557-10.8163v-1.056c0-5.97365 0-8.96051-1.8557-10.81626C22.688.78027 19.7012.78027 13.7275.78027h-1.056c-5.97361 0-8.96045 0-10.81622 1.85567C-.00049 4.49172-.00049 7.47855-.00049 13.4522v1.056c0 5.9737 0 8.9605 1.85578 10.8163ZM14.0556 8.45824l-3.2235-.80525c-.8079-.20181-1.59112.40611-1.59112 1.23498v1.54953l-3.22354-.8053c-.8079-.20181-1.59111.4061-1.59111 1.2349v8.5974c0 .7298.49872 1.366 1.21002 1.5437l5.11625 1.2781c.8079.2018 1.5911-.4061 1.5911-1.235v-1.5495l.8199.2048-.8199-.2077v-7.045c0-.5074-.2412-.9697-.6273-1.264-.0295-.025-.0372-.0691-.0151-.1012.0225-.0326.0629-.048.1007-.0365.6741.2035 1.3192.8946 1.3835 1.7636l.2226 6.5657c.0073.2157.1467.4026.3473.473l1.8118.4526c.8079.2018 1.5911-.4061 1.5911-1.235v-1.5499l.0013-7.0341c0-.1115-.0108-.2158-.0297-.3129-.0716-.37229-.2742-.7033-.5642-.93725a1.16598 1.16598 0 0 0-.0307-.0245c-.0317-.0246-.0406-.07041-.0177-.1035.0224-.03255.0628-.04794.1006-.03651.6741.20352 1.3191.89463 1.3835 1.76366l.2226 6.5652c.0077.2263.1615.4207.3786.4809l1.7793.4444c.8079.2018 1.5911-.4061 1.5911-1.235V8.49528c0-.72976-.4987-1.36603-1.21-1.54369l-5.1162-1.27806c-.8079-.20181-1.5912.40608-1.5912 1.23495v1.54976ZM60.1962 25.3456c2.4787 0 4.5289-1.4042 4.5289-3.7324 0-2.6053-2.1433-3.3629-3.9883-3.9911-1.435-.4804-2.6836-.9239-2.6836-2.088 0-1.0162.9502-1.5521 2.0684-1.5521 1.1743 0 2.013.6098 2.479 1.6445l2.1245-.351c-.671-2.0326-2.3671-3.326-4.6778-3.326-2.3855 0-4.2866 1.3673-4.2866 3.6955 0 2.6238 2.1433 3.3444 3.9883 3.9542 1.4165.4619 2.6836.9054 2.6836 2.0879 0 1.0348-.9502 1.626-2.2176 1.626-1.4538 0-2.2364-.6836-2.9259-1.9216l-2.1621.3695c.6337 2.1989 2.6467 3.5846 5.0692 3.5846Zm-17.1843-9.0908c0 1.9586-1.2859 3.4552-3.2427 3.9541l3.6526 4.952H40.794l-3.4662-4.7857h-1.5842v4.7857h-2.2364V12.1343h4.8454c2.7209 0 4.6593 1.6999 4.6593 4.1205Zm-2.2922 0c0-1.238-.9693-2.088-2.3671-2.088h-2.609v4.1759h2.609c1.3978 0 2.3671-.85 2.3671-2.0879Zm7.7355 9.0908c1.1739 0 2.2548-.6098 2.87-1.626l.4285 1.4412h1.603v-9.6083h-2.1434v5.5618c0 1.3673-.9132 2.3281-2.1618 2.3281-1.23 0-2.0875-.9608-2.0875-2.3281v-5.5618h-2.143v5.802c0 2.3096 1.5654 3.9911 3.6342 3.9911Zm21.0193-3.1042c0 .7206.3541 1.0717 1.0809 1.0717h1.9941l-.1864 1.8477h-1.8077c-2.1245 0-3.2242-1.0347-3.2242-2.9194v-4.8411h-1.5839v-1.8478h1.5839l.5406-2.7716h1.6027v2.7716h2.8886v1.8478h-2.8886v4.8411Zm14.3803-1.8846c0 2.9195-2.143 4.9889-5.1807 4.9889-3.0378 0-5.1811-2.0694-5.1811-4.9889 0-2.9194 2.1433-4.9889 5.1811-4.9889 3.0377 0 5.1807 2.0695 5.1807 4.9889Zm-8.1254 0c0 1.8108 1.1928 3.0488 2.9447 3.0488 1.7518 0 2.9443-1.238 2.9443-3.0488s-1.1925-3.0487-2.9443-3.0487c-1.7519 0-2.9447 1.2379-2.9447 3.0487Zm12.1319-.8686v5.6726h-2.143v-9.6083h1.6027l.4099 1.3859c.6522-1.0718 1.5281-1.3859 2.6651-1.3859h.4099l.1865 2.0325h-1.2301c-1.3046 0-1.901.6837-1.901 1.9032Zm8.6449-4.1203c2.9446 0 5.0318 2.1064 5.0318 4.8781 0 .2586-.018.4804-.037.6836h-7.7904c.2053 1.4782 1.2862 2.476 2.9262 2.476 1.1367 0 2.0315-.4804 2.4972-1.1641l2.013.3326c-.727 1.8293-2.6279 2.7716-4.6408 2.7716-2.9444 0-5.0319-2.0879-5.0319-4.9889 0-2.9009 2.0875-4.9889 5.0319-4.9889Zm2.7024 3.8988c-.3542-1.2011-1.3605-2.051-2.7024-2.051-1.3044 0-2.3107.813-2.6649 2.051h5.3673ZM35.9906 4.46133h-.8721v.87647h.8999c.9084 0 1.4282.39411 1.4282 1.03387 0 .63078-.5519 1.07824-1.3973 1.07824s-1.4186-.39837-1.4773-1.01594h-.9725c.0592.57908.3534 1.10953.8154 1.46972.4619.36018 1.0518.51919 1.6344.44057.5813.0715 1.1672-.09172 1.6256-.45283.4583-.36111.7504-.88968.8103-1.46645.0328-.8268-.6155-1.52443-1.4506-1.5611v-.07607c.6973-.15406 1.1911-.7694 1.1849-1.47657 0-1.02436-.9042-1.73596-2.1884-1.73596-.5625-.07236-1.1302.08987-1.5672.4479-.437.35803-.7041.87967-.7374 1.44021h.9575c.0351-.30862.1946-.59011.4425-.78053.2479-.19042.563-.27359.8737-.23061.7675 0 1.2201.38459 1.2201.97997-.0132.30246-.1536.58569-.3871.78115-.2336.19547-.5391.28537-.8426.24796Zm5.9968.31246c-1.1699.07185-1.8307.57742-1.8307 1.45438.0017.41582.181.81153.4936 1.08933.3125.2778.7293.41174 1.1471.36872.5961.02728 1.1608-.26494 1.4784-.76493h.0769v.68466h.9362V4.2772c0-1.02911-.696-1.63716-1.93-1.63716-1.1166 0-1.9129.53674-2.0122 1.37355h.9405c.1089-.34445.4835-.5415 1.0258-.5415.665 0 1.0077.29056 1.0077.80511v.42052l-1.3333.07607Zm1.3333.63078v.40731c-.0213.31051-.1689.59919-.4092.79996-.2403.20076-.5525.29642-.8654.26506-.5284 0-.9127-.25516-.9127-.69364 0-.4295.3074-.65772.9853-.70262l1.202-.07607Zm3.2736-1.95519v4.06254h-.9714V2.64004h3.2409v.80929l-2.2695.00005Zm5.9612 4.22416c1.2425 0 2.0335-.97048 2.0335-2.51836 0-1.54842-.791-2.51466-2.0431-2.51463-.6425-.01565-1.2396.32659-1.5456.88595h-.0726v-.80515h-.9351v6.49162h.9714V6.85522h.0768c.3011.54119.892.86042 1.5147.81832Zm-.2807-4.16926c.823 0 1.3151.62179 1.3151 1.6509 0 1.03332-.4921 1.65512-1.3194 1.65513-.8134 0-1.3247-.63552-1.3247-1.6509 0-1.02014.5114-1.65513 1.329-1.65513Zm3.6843 5.75259v-.82783a2.319 2.319 0 0 0 .317.01796c.4285.03142.8122-.26163.8902-.67991l.0726-.23721-1.7816-4.88984h1.0579l1.234 3.86972h.0768l1.2297-3.86972h1.0301l-1.8349 5.07317c-.4206 1.18548-.886 1.56585-1.8894 1.56585-.0811-.00001-.3117-.00899-.4024-.02219Zm5.9357-3.0173h-.9672c.0897.98421.9629 1.47182 2.0378 1.47185 1.2158 0 2.0121-.61277 2.0121-1.5389.0063-.55419-.4075-1.0253-.9628-1.0962v-.07607c.4644-.10926.7884-.52507.7771-.99742 0-.82307-.6693-1.34661-1.8392-1.34661-.9314-.12705-1.794.50756-1.9396 1.42691h.9362c.063-.38459.4601-.61282 1.0034-.61282.5967 0 .886.27312.886.63077 0 .40731-.2989.63077-.886.63077h-.7237v.747h.7365c.6875 0 1.044.224 1.044.69364 0 .43847-.3971.72057-1.044.72057-.5689 0-.9756-.22396-1.0706-.65349Zm4.4985 1.27235V2.64004h.9628v3.35095h.0769l2.2683-3.35094h.9628v4.87188h-.9628V4.14304h-.0726l-2.2726 3.3689-.9628-.00002Zm7.9833-4.06259h1.55v-.80929h-4.0724v.80929h1.55v4.06254h.9724V3.44933Zm7.3671 2.84128c-.2732.91888-1.1718 1.51241-2.1339 1.40947-.6563.01715-1.2871-.25213-1.7249-.73638-.4379-.48425-.6385-1.13452-.5487-1.77828-.0874-.64555.1125-1.29686.5479-1.7852.4354-.48834 1.0635-.76565 1.7214-.7601 1.3696 0 2.1969.92614 2.1969 2.456v.3355h-3.4756v.05389c-.0312.3616.0934.7194.3431.9852.2496.2658.6011.41488.9677.41049.4749.05621.937-.17711 1.1699-.59063l.9362.00004Zm-3.417-1.57008h2.4851c.0248-.33047-.0925-.65595-.323-.89628-.2305-.24033-.5528-.37317-.8875-.3658-.3396-.00457-.6665.12695-.9065.36465-.2401.2377-.3729.56138-.3681.89743Zm8.8618-2.08049h-2.2193V7.5119h2.2417c1.0803 0 1.7261-.55471 1.7261-1.40472.0072-.59203-.4556-1.08581-1.0525-1.12315v-.07607c.4879-.10566.8346-.53476.8315-1.0291 0-.75596-.5647-1.23882-1.5275-1.23882ZM85.9321 4.6396V3.37805h1.0706c.5156 0 .7601.24618.7601.62602 0 .41206-.2808.63553-.8679.63553h-.9628Zm0 2.13431V5.34647l1.0301.00001c.6554 0 1.0034.22822 1.0034.71583 0 .46067-.3074.7116-.8817.7116h-1.1518Z"/>
</svg>
