<svg width="110" height="30" stroke="none" xmlns="http://www.w3.org/2000/svg">
    <path stroke="none" d="M16.8193 14.6893c.0249-1.9087 1.0358-3.6718 2.6787-4.6715-1.0411-1.47175-2.7224-2.37142-4.5367-2.4276-1.9088-.19832-3.7592 1.13053-4.7319 1.13053-.9915 0-2.48907-1.11084-4.10172-1.078-2.12182.06785-4.05197 1.23299-5.08428 3.06917-2.19828 3.7673-.55856 9.3039 1.54726 12.3492 1.05358 1.4911 2.28492 3.1568 3.89612 3.0977 1.57664-.0647 2.16549-.9951 4.06862-.9951 1.8855 0 2.4379.9951 4.0818.9576 1.6918-.0272 2.7578-1.4978 3.7744-3.0031.757-1.0625 1.3395-2.2368 1.726-3.4794-2.0094-.8412-3.3159-2.79-3.3183-4.9495Zm-3.2896-9.68387c.9225-1.09608 1.377-2.50491 1.2669-3.92731-1.4093.14652-2.7111.8132-3.646 1.86723-.9232 1.03994-1.39084 2.40047-1.30001 3.78191 1.42821.01455 2.78421-.62006 3.67911-1.72183ZM34.8434 21.7015h-5.174l-1.2425 3.6314h-2.1915l4.9007-13.4354h2.2769l4.9007 13.4354h-2.2289l-1.2414-3.6314Zm-4.6381-1.6758h4.1012l-2.0218-5.8936h-.0566l-2.0228 5.8936Zm19.5601 1.2021c0 3.044-1.6461 4.9997-4.13 4.9997-1.284.0665-2.4934-.5991-3.1138-1.7138h-.047v4.8519h-2.0313V16.3295h1.9662v1.6292h.0374c.648-1.1076 1.8587-1.7729 3.1511-1.7317 2.5117 0 4.1674 1.9652 4.1674 5.0008Zm-2.088 0c0-1.9832-1.0354-3.287-2.6153-3.287-1.552 0-2.596 1.3313-2.596 3.287 0 1.9737 1.044 3.2955 2.596 3.2955 1.5799 0 2.6153-1.2943 2.6153-3.2955Zm13.0159 0c0 3.044-1.6465 4.9997-4.1305 4.9997-1.2839.0665-2.4933-.5991-3.1137-1.7138h-.047v4.8519h-2.0314V16.3295h1.9662v1.6292h.0374c.648-1.1076 1.8587-1.7729 3.1511-1.7317 2.5118 0 4.1679 1.9652 4.1679 5.0008Zm-2.0884 0c0-1.9832-1.0355-3.287-2.6153-3.287-1.5521 0-2.596 1.3313-2.596 3.287 0 1.9737 1.0439 3.2955 2.596 3.2955 1.5798 0 2.6153-1.2943 2.6153-3.2955Zm9.0563.5857c.1505 1.3324 1.4581 2.2072 3.245 2.2072 1.7122 0 2.9441-.8749 2.9441-2.0762 0-1.0429-.743-1.6673-2.5021-2.0952l-1.7592-.4195c-2.4925-.5959-3.6496-1.7497-3.6496-3.6219 0-2.3182 2.041-3.9104 4.938-3.9104 2.8693 0 4.8356 1.5922 4.9018 3.9104h-2.0506c-.1228-1.3408-1.2426-2.1502-2.879-2.1502s-2.7561.8189-2.7561 2.0107c0 .9499.7152 1.5088 2.4647 1.9367l1.4955.3634c2.785.6519 3.9411 1.7593 3.9411 3.7245 0 2.5136-2.0218 4.0879-5.2391 4.0879-3.0102 0-5.0427-1.5374-5.174-3.9675l2.0795.0001Zm12.3323-7.7522v2.3182h1.8819v1.5922h-1.8819v5.4002c0 .8389.3768 1.2299 1.204 1.2299.2235-.0039.4465-.0194.6683-.0466v1.5828c-.372.0688-.75.0999-1.1283.093-2.0036 0-2.785-.7449-2.785-2.6447v-5.6146h-1.4389v-1.5922h1.4389v-2.3182h2.041Zm3.0826 7.1826c0-3.082 1.8339-5.0187 4.6936-5.0187 2.8693 0 4.6946 1.9367 4.6946 5.0187 0 3.0905-1.8157 5.0188-4.6946 5.0188-2.8779 0-4.6936-1.9283-4.6936-5.0188Zm7.3184 0c0-2.1142-.9788-3.362-2.6249-3.362-1.646 0-2.6248 1.2573-2.6248 3.362 0 2.1227.9788 3.361 2.6248 3.361 1.6461 0 2.6249-1.2383 2.6249-3.361Zm3.609-4.9145h1.9374v1.6673h.047c.2702-1.0733 1.2638-1.812 2.3805-1.7698a3.1674 3.1674 0 0 1 .6959.075v1.8807a2.86992 2.86992 0 0 0-.9127-.1215c-.5972-.0239-1.1751.2116-1.5821.6449-.407.4333-.6023 1.021-.5346 1.6088v5.8101h-2.0314v-9.7955Zm14.3925 6.9347c-.274 1.7782-2.023 2.9986-4.262 2.9986-2.879 0-4.6654-1.9093-4.6654-4.9723 0-3.0725 1.7964-5.0652 4.5804-5.0652 2.738 0 4.46 1.8617 4.46 4.8317v.6889h-6.99v.1215c-.065.7293.189 1.4511.699 1.982.509.5309 1.224.8195 1.963.7926.986.0914 1.916-.4689 2.286-1.3778h1.929Zm-6.867-2.9235h4.947c.037-.6553-.204-1.2961-.665-1.7681-.46-.4719-1.099-.7322-1.762-.7181-.668-.0039-1.31.2565-1.783.7233-.474.4669-.739 1.1015-.737 1.7629ZM28.8466 5.06211h.8721c.3035.03741.609-.05249.8426-.24796.2336-.19546.3739-.47869.3871-.78115 0-.59538-.4526-.97997-1.2201-.97997-.3107-.04298-.6258.04019-.8737.23061-.2478.19042-.4074.47191-.4424.78053h-.9576c.0333-.56054.3004-1.08218.7374-1.44021.4371-.35803 1.0047-.52026 1.5673-.4479 1.2841 0 2.1883.71161 2.1883 1.73596.0062.70717-.4876 1.32251-1.1849 1.47657v.07607c.8351.03667 1.4834.7343 1.4507 1.5611-.06.57677-.3521 1.10535-.8104 1.46645-.4583.36111-1.0442.52433-1.6256.45283-.5826.07862-1.1725-.08039-1.6344-.44057-.4619-.36019-.7562-.89064-.8154-1.46972h.9725c.0587.61757.6319 1.01594 1.4773 1.01594.8455 0 1.3973-.44746 1.3973-1.07824 0-.63976-.5198-1.03387-1.4282-1.03387h-.8999v-.87647Zm5.0397 1.76802c0-.87697.6608-1.38254 1.8307-1.45439l1.3333-.07607v-.42051c0-.51456-.3427-.80512-1.0077-.80512-.5423 0-.917.19706-1.0258.5415h-.9405c.0993-.83681.8956-1.37355 2.0122-1.37355 1.234 0 1.9299.60805 1.9299 1.63717v3.32875h-.9361v-.68466h-.0769c-.3176.49999-.8824.7922-1.4784.76492-.4178.04302-.8346-.09092-1.1472-.36872-.3125-.27779-.4918-.67351-.4935-1.08932Zm3.164-.4163v-.40731l-1.202.07607c-.6779.0449-.9853.27313-.9853.70262 0 .43848.3843.69364.9127.69364.3128.03136.6251-.06429.8654-.26506.2403-.20076.3879-.48945.4092-.79996Zm3.2683-2.3625v4.06255h-.9713V3.24199h3.2408v.80929l-2.2695.00005Zm8.0024 1.7058c0 1.54789-.791 2.51836-2.0335 2.51836-.6228.0421-1.2137-.27712-1.5147-.81832h-.0769v2.35775h-.9714V3.32331h.9351v.80514h.0726c.3061-.55935.9032-.9016 1.5457-.88594 1.2521-.00004 2.0431.9662 2.0431 2.51462Zm-.9992 0c0-1.0291-.4921-1.6509-1.3151-1.6509-.8176 0-1.3289.635-1.3289 1.65513 0 1.01538.5113 1.65091 1.3247 1.65091.8272-.00001 1.3193-.62181 1.3193-1.65514Zm2.3654 4.10169v-.82783a2.319 2.319 0 0 0 .317.01796c.4285.03142.8122-.26162.8902-.67991l.0726-.2372-1.7816-4.88985h1.0579l1.234 3.86972h.0769l1.2297-3.86972h1.0301l-1.835 5.07317c-.4206 1.18548-.886 1.56585-1.8894 1.56585-.0811-.00001-.3117-.00899-.4024-.02219Zm4.9648-3.01729h.9671c.095.42953.5017.65349 1.0706.65349.6469 0 1.044-.28211 1.044-.72057 0-.46965-.3565-.69364-1.044-.69364h-.7365v-.747h.7237c.5871 0 .886-.22347.886-.63077 0-.35766-.2893-.63077-.886-.63077-.5433 0-.9404.22822-1.0034.61282h-.9361c.1455-.91936 1.0082-1.55397 1.9395-1.42691 1.1699 0 1.8392.52353 1.8392 1.34661.0113.47234-.3127.88815-.7771.99741v.07607c.5553.0709.9691.54201.9629 1.0962 0 .92614-.7964 1.5389-2.0122 1.5389-1.0749-.00003-1.9481-.48764-2.0377-1.47184Zm5.4647 1.27234V3.24199h.9628v3.35095h.0769L63.4247 3.242h.9629v4.87189h-.9629V4.745h-.0726l-2.2726 3.3689-.9628-.00003Zm9.5374-4.06259h-1.5499v4.06254h-.9725V4.05128h-1.55v-.80929h4.0724v.80929Zm5.827 2.84128c-.2731.91888-1.1717 1.51242-2.1338 1.40947-.6563.01715-1.2871-.25212-1.7249-.73637-.4379-.48426-.6385-1.13453-.5488-1.77829-.0873-.64555.1126-1.29686.548-1.7852s1.0635-.76565 1.7214-.7601c1.3696 0 2.1969.92614 2.1969 2.456v.33551h-3.4757v.05388c-.0311.3616.0935.7194.3432.9852.2496.2658.6011.41488.9677.4105.4749.0562.937-.17712 1.1699-.59063l.9361.00003Zm-3.4169-1.57007h2.485c.0249-.33047-.0924-.65596-.3229-.89629-.2305-.24032-.5528-.37316-.8875-.36579-.3396-.00458-.6665.12694-.9065.36464-.2401.2377-.3729.56138-.3681.89744Zm6.6346-2.0805h2.2193c.9628 0 1.5275.48286 1.5275 1.23882.0031.49435-.3437.92345-.8316 1.0291v.07608c.597.03733 1.0597.53111 1.0525 1.12314 0 .85001-.6458 1.40472-1.726 1.40472h-2.2417V3.24199Zm.9629.73801v1.26155h.9628c.5871 0 .8679-.22346.8679-.63553 0-.37983-.2445-.62602-.7601-.62602h-1.0706Zm0 1.96842v1.42744h1.1518c.5743 0 .8817-.25093.8817-.7116 0-.4876-.348-.71583-1.0034-.71583l-1.0301-.00001Z"/>
</svg>
