<svg width="191" height="229" viewBox="0 0 191 229" fill="none" xmlns="http://www.w3.org/2000/svg">
    <path d="M90 51.4V182.2C90 196 86.3 207.2 78.9 215.8C71.7 224.4 61.5 228.7 48.3 228.7H40.8C13.8 228.7 0.3 213.2 0.3 182.2V52C0.3 35.2 3.6 22.5 10.2 13.9C16.8 5.09999 27.6 0.699986 42.6 0.699986H48.9C63.9 0.699986 74.5 5.09999 80.7 13.9C86.9 22.7 90 35.2 90 51.4ZM55.5 179.8V50.2C55.5 44.2 54.7 40 53.1 37.6C51.7 35 49 33.7 45 33.7C41.2 33.7 38.5 35 36.9 37.6C35.5 40.2 34.8 44.4 34.8 50.2V179.8C34.8 189.8 38.1 194.8 44.7 194.8C51.9 194.8 55.5 189.8 55.5 179.8ZM138.346 126.1H105.046V2.79999H188.446V36.4H138.346V86.5C145.546 71.9 154.646 64.6 165.646 64.6H166.846C175.046 64.6 181.046 67.2 184.846 72.4C188.646 77.4 190.546 83.6 190.546 91V186.7C190.546 198.5 187.146 208.5 180.346 216.7C173.546 224.7 163.346 228.7 149.746 228.7H143.446C128.046 228.7 117.246 224.9 111.046 217.3C105.046 209.5 102.046 200.5 102.046 190.3V144.4H136.846V183.7C136.846 192.3 139.846 196.6 145.846 196.6C151.446 196.6 154.246 192.3 154.246 183.7V112.6C154.246 103.8 151.646 99.4 146.446 99.4C141.046 99.4 138.346 103.8 138.346 112.6V126.1Z" fill="#DCFF00"/>
</svg>
