<svg width="190" height="228" viewBox="0 0 190 228" fill="none" xmlns="http://www.w3.org/2000/svg">
    <path d="M89.7627 50.7V181.5C89.7627 195.3 86.0602 206.5 78.655 215.1C71.45 223.7 61.2428 228 48.0336 228H40.5283C13.5094 228 0 212.5 0 181.5V51.3C0 34.5 3.30231 21.8 9.90693 13.2C16.5115 4.4 27.3191 0 42.3296 0H48.634C63.6445 0 74.2519 4.4 80.4562 13.2C86.6606 22 89.7627 34.5 89.7627 50.7ZM55.2386 179.1V49.5C55.2386 43.5 54.4381 39.3 52.8369 36.9C51.436 34.3 48.7341 33 44.7313 33C40.9286 33 38.2267 34.3 36.6256 36.9C35.2246 39.5 34.5241 43.7 34.5241 49.5V179.1C34.5241 189.1 37.8264 194.1 44.4311 194.1C51.6361 194.1 55.2386 189.1 55.2386 179.1Z" fill="#DCFF00"/>
    <path d="M144.068 32.4C140.866 32.4 138.664 33.3 137.463 35.1C136.262 36.9 135.662 39.9 135.662 44.1V82.2H103.239V41.4C103.239 29.4 106.141 19.5 111.945 11.7C117.749 3.9 127.156 0 140.165 0H147.07C174.689 0 188.499 13.8 188.499 41.4V52.5C188.499 66.7 187.398 77.7 185.197 85.5C182.995 93.1 177.491 103.6 168.685 117C166.283 120.6 159.078 130.8 147.07 147.6C137.864 160.8 131.959 170.4 129.358 176.4C126.956 182.4 125.755 188.1 125.755 193.5H155.776V150.6H190V225.3H97.5354V208.5C97.5354 193.9 99.1365 181.4 102.339 171C105.741 160.4 112.846 145.8 123.654 127.2L143.167 92.7C146.169 87.3 148.371 82.6 149.772 78.6C151.373 74.4 152.274 71.2 152.474 69C152.674 66.6 152.774 63.1 152.774 58.5V44.1C152.774 36.3 149.872 32.4 144.068 32.4Z" fill="#DCFF00"/>
</svg>
