<svg fill="none" xmlns="http://www.w3.org/2000/svg" viewBox="0 0 155 228">
    <path d="M89.5002 50.7v130.8c0 13.8-3.6918 25-11.0753 33.6-7.184 8.6-17.3612 12.9-30.5318 12.9h-7.4833C13.4699 228 0 212.5 0 181.5V51.3c0-16.8 3.2927-29.5 9.878-38.1C16.4631 4.4 27.2391 0 42.2057 0h6.2859c14.9666 0 25.543 4.4 31.7292 13.2 6.1862 8.8 9.2793 21.3 9.2793 37.5ZM55.077 179.1V49.5c0-6-.7982-10.2-2.3946-12.6-1.3969-2.6-4.0909-3.9-8.082-3.9-3.7915 0-6.4855 1.3-8.0819 3.9-1.3969 2.6-2.0954 6.8-2.0954 12.6v129.6c0 10 3.2927 15 9.878 15 7.1839 0 10.7759-5 10.7759-15ZM120.876 54.3H98.127V26.7c9.978-.6 16.962-2.6 20.953-6 4.191-3.4 7.084-9.6 8.681-18.6H155v223.2h-34.124v-171Z" fill="#DCFF00"/>
</svg>
