<svg width="188" height="228" viewBox="0 0 188 228" fill="none" xmlns="http://www.w3.org/2000/svg">
    <path d="M89.3928 50.7V181.5C89.3928 195.3 85.7055 206.5 78.3308 215.1C71.1555 223.7 60.9904 228 47.8356 228H40.3613C13.4538 228 0 212.5 0 181.5V51.3C0 34.5 3.2887 21.8 9.86609 13.2C16.4435 4.4 27.2065 0 42.1551 0H48.4336C63.3822 0 73.9459 4.4 80.1246 13.2C86.3034 22 89.3928 34.5 89.3928 50.7ZM55.0109 179.1V49.5C55.0109 43.5 54.2137 39.3 52.6192 36.9C51.224 34.3 48.5332 33 44.5469 33C40.7599 33 38.0692 34.3 36.4746 36.9C35.0794 39.5 34.3818 43.7 34.3818 49.5V179.1C34.3818 189.1 37.6705 194.1 44.2479 194.1C51.4233 194.1 55.0109 189.1 55.0109 179.1Z" fill="#DCFF00"/>
    <path d="M134.185 69.3H102.793V41.1C102.793 30.3 105.484 20.8 110.865 12.6C116.446 4.2 125.415 0 137.773 0H146.144C159.498 0 169.464 3.7 176.041 11.1C182.618 18.5 185.907 28.7 185.907 41.7V67.2C185.907 86 181.223 97.7 171.855 102.3C177.436 104.3 181.522 107.3 184.113 111.3C186.704 115.3 188 121.2 188 129V183.9C188 197.5 184.412 208.3 177.237 216.3C170.261 224.1 160.793 228 148.835 228H139.566C126.013 228 116.047 224.5 109.669 217.5C103.49 210.5 100.401 201.2 100.401 189.6V144.3H133.886V180.9C133.886 189.7 137.175 194.1 143.752 194.1C149.931 194.1 153.02 189.7 153.02 180.9V134.4C153.02 130 152.422 127 151.226 125.4C150.23 123.8 147.838 123 144.051 123H125.814V88.2H141.659C145.646 88.2 148.237 87.4 149.433 85.8C150.628 84.2 151.226 80.8 151.226 75.6V44.4C151.226 39.8 150.529 36.6 149.134 34.8C147.938 33 145.745 32.1 142.556 32.1C139.566 32.1 137.374 33 135.979 34.8C134.783 36.4 134.185 39.5 134.185 44.1V69.3Z" fill="#DCFF00"/>
</svg>
