<svg width="198" height="228" viewBox="0 0 198 228" fill="none" xmlns="http://www.w3.org/2000/svg">
    <path d="M89.5887 50.7V181.5C89.5887 195.3 85.8932 206.5 78.5024 215.1C71.3114 223.7 61.124 228 47.9404 228H40.4497C13.4832 228 0 212.5 0 181.5V51.3C0 34.5 3.2959 21.8 9.88771 13.2C16.4795 4.4 27.2661 0 42.2475 0H48.5397C63.5211 0 74.1079 4.4 80.3002 13.2C86.4925 22 89.5887 34.5 89.5887 50.7ZM55.1315 179.1V49.5C55.1315 43.5 54.3325 39.3 52.7345 36.9C51.3362 34.3 48.6395 33 44.6445 33C40.8492 33 38.1526 34.3 36.5546 36.9C35.1563 39.5 34.4572 43.7 34.4572 49.5V179.1C34.4572 189.1 37.7531 194.1 44.3449 194.1C51.536 194.1 55.1315 189.1 55.1315 179.1Z" fill="#DCFF00"/>
    <path d="M144.067 140.7V81.3C138.474 99.3 131.682 119.1 123.692 140.7H144.067ZM97.9244 171.3V143.4C117.5 91.8 134.179 44.4 147.962 1.2H177.326V140.7H198V171.3H177.326V225.3H144.067V171.3H97.9244Z" fill="#DCFF00"/>
</svg>
