<svg width="224" height="70" fill="none" xmlns="http://www.w3.org/2000/svg">
    <path d="M2.943 70 .057 65H5.83l-2.887 5Zm0-56h-.5v-.5h.5v.5Zm220.931.5H2.944v-1h220.93v1ZM3.444 14v51.5h-1V14h1Z" fill="#000"/>
    <path fill="#D9CFFF" d="M96.607 0h33.23v22h-33.23z"/>
    <path d="M105.357 22h-3.21V5.86h3.21v6.57h1.86V5.86h3.21V22h-3.21v-6.51h-1.86V22Zm9.766-16.35h.6c2.4 0 3.6 1.34 3.6 4.02v4.65h-4.77v3.72c0 .8.29 1.2.87 1.2.54 0 .81-.39.81-1.17V15.4h3.09v2.82c0 2.72-1.25 4.08-3.75 4.08h-.57c-1.12 0-1.99-.34-2.61-1.02-.62-.68-.93-1.69-.93-3.03V9.52c0-1.16.3-2.09.9-2.79.6-.72 1.52-1.08 2.76-1.08Zm-.57 3.99v2.04h1.77V9.64c0-.86-.29-1.29-.87-1.29-.26 0-.46.06-.6.18-.14.12-.23.27-.27.45-.02.16-.03.38-.03.66Zm7.56 12.36V8.92h-2.25V5.86h7.71v3.06h-2.25V22h-3.21Z" fill="#000"/>
</svg>
