<svg width="243" height="70" fill="none" xmlns="http://www.w3.org/2000/svg">
    <path d="m240 70 2.887-5h-5.774L240 70Zm0-56h.5v-.5h-.5v.5ZM.8086 14.5H240v-1H.8086v1ZM239.5 14v51.5h1V14h-1Z" fill="#000"/>
    <path fill="#D9CFFF" d="M106.39 0h30v22h-30z"/>
    <path d="M114.3 25h-2.91v-6.06h.75c.26-.6.45-1.4.57-2.4.22-1.44.33-5 .33-10.68h7.8v13.08h1.2V25h-2.91v-3h-4.83v3Zm1.29-7.92c-.12.74-.25 1.36-.39 1.86h2.43V8.92h-1.68c0 3.96-.12 6.68-.36 8.16Zm7.061 2.49v-3.78c0-.82.11-1.47.33-1.95.22-.5.62-.93 1.2-1.29.22-.14.52-.31.9-.51s.77-.39 1.17-.57l.72-.36c.18-.12.29-.21.33-.27.04-.06.06-.2.06-.42V9.4c0-.4-.06-.67-.18-.81-.12-.16-.32-.24-.6-.24h-.06c-.3 0-.51.08-.63.24-.12.14-.18.4-.18.78v1.71h-2.88V8.8c0-2.04 1.13-3.06 3.39-3.06h.6c1.42 0 2.38.29 2.88.87.5.56.75 1.33.75 2.31v9.6c0 .2.03.34.09.42.06.06.2.09.42.09h.57V22h-3.06c-.7 0-1.05-.61-1.05-1.83-.72 1.28-1.6 1.92-2.64 1.92h-.09c-.62 0-1.12-.25-1.5-.75-.36-.5-.54-1.09-.54-1.77Zm4.71-1.56v-4.17c-.52.3-.9.57-1.14.81-.28.28-.42.71-.42 1.29v2.22c0 .7.25 1.05.75 1.05.54 0 .81-.4.81-1.2Z" fill="#000"/>
</svg>
